<svg width="800px" height="800px" viewBox="0 0 48 48" enable-background="new 0 0 48 48" id="_x3C_Layer_x3E_" version="1.1" xml:space="preserve" xmlns="http://www.w3.org/2000/svg" xmlns:xlink="http://www.w3.org/1999/xlink"><g id="tick_x2C__check_mark"><path cx="24" cy="24" fill="#E1F5FE" r="21.5" d="M45.5 24A21.5 21.5 0 0 1 24 45.5A21.5 21.5 0 0 1 2.5 24A21.5 21.5 0 0 1 45.5 24z"/><path d="M24 46C11.869 46 2 36.131 2 24S11.869 2 24 2a22.04 22.04 0 0 1 16.342 7.271 0.499 0.499 0 1 1 -0.742 0.67A21.04 21.04 0 0 0 24 3C12.421 3 3 12.42 3 24s9.421 21 21 21 21 -9.42 21 -21c0 -2.299 -0.369 -4.56 -1.098 -6.72a0.499 0.499 0 1 1 0.947 -0.319A22 22 0 0 1 46 24c0 12.131 -9.869 22 -22 22" fill="#0277BD"/><path d="M24 45C12.421 45 3 35.58 3 24S12.421 3 24 3a21.07 21.07 0 0 1 15.419 6.743 0.5 0.5 0 0 1 -0.734 0.679A20.07 20.07 0 0 0 24 4C12.972 4 4 12.972 4 24s8.972 20 20 20 20 -8.972 20 -20c0 -2.03 -0.303 -4.031 -0.899 -5.948a0.5 0.5 0 1 1 0.955 -0.297C44.683 19.768 45 21.869 45 24c0 11.58 -9.421 21 -21 21" fill="#FFFFFF"/><g><g><path d="M21.584 33.834c0.892 0.888 2.438 0.888 3.331 0l19.387 -19.309a2.37 2.37 0 0 0 0 -3.359c-0.892 -0.888 -2.438 -0.888 -3.33 0L24.007 28.061c-0.399 0.398 -1.116 0.398 -1.516 0l-6.463 -6.436c-0.446 -0.444 -1.037 -0.688 -1.665 -0.688s-1.22 0.244 -1.665 0.688a2.37 2.37 0 0 0 0 3.359z" fill="#64FFDA"/><path d="M23.249 35.005a2.85 2.85 0 0 1 -2.018 -0.817l-8.886 -8.85a2.85 2.85 0 0 1 -0.846 -2.035c0 -0.769 0.301 -1.491 0.846 -2.033 1.077 -1.074 2.954 -1.076 4.035 0l6.463 6.436c0.205 0.204 0.606 0.205 0.81 0L40.619 10.81c1.094 -1.089 2.941 -1.089 4.035 0a2.85 2.85 0 0 1 0.846 2.034c0 0.769 -0.301 1.491 -0.846 2.033L25.268 34.188a2.85 2.85 0 0 1 -2.019 0.817m-8.886 -13.568a1.85 1.85 0 0 0 -1.312 0.542c-0.355 0.354 -0.552 0.824 -0.552 1.325s0.195 0.972 0.551 1.325l8.886 8.851c0.699 0.695 1.927 0.696 2.626 0l19.387 -19.31c0.354 -0.353 0.551 -0.824 0.551 -1.325s-0.195 -0.972 -0.551 -1.325c-0.699 -0.696 -1.926 -0.697 -2.625 0L24.359 28.416c-0.59 0.59 -1.63 0.59 -2.222 0l-6.462 -6.436a1.84 1.84 0 0 0 -1.312 -0.543" fill="#0277BD"/></g><path d="M13 23.804a0.5 0.5 0 0 1 -0.5 -0.5c0 -0.5 0.196 -0.971 0.552 -1.325 0.351 -0.35 0.816 -0.542 1.312 -0.542a0.5 0.5 0 0 1 0 1 0.86 0.86 0 0 0 -0.606 0.25 0.87 0.87 0 0 0 -0.257 0.617 0.5 0.5 0 0 1 -0.501 0.5" fill="#FFFFFF"/><path d="M26.161 27.828a0.502 0.502 0 0 1 -0.352 -0.855l14.07 -14.013a0.5 0.5 0 1 1 0.705 0.709l-14.07 14.013a0.5 0.5 0 0 1 -0.353 0.146" fill="#FFFFFF"/></g></g></svg>