<svg width="100px" height="100px" viewBox="0 0 3 3" fill="none" xmlns="http://www.w3.org/2000/svg"><path fill-rule="evenodd" clip-rule="evenodd" d="M0.25 0.938a0.625 0.625 0 0 1 0.625 -0.625h1.25a0.625 0.625 0 0 1 0.625 0.625v0.75a0.625 0.625 0 0 1 -0.625 0.625h-0.198l-0.338 0.338a0.125 0.125 0 0 1 -0.177 0L1.073 2.313H0.875a0.625 0.625 0 0 1 -0.625 -0.625zm0.625 0a0.125 0.125 0 0 0 0 0.25h1a0.125 0.125 0 1 0 0 -0.25zm0 0.5a0.125 0.125 0 1 0 0 0.25h1.25a0.125 0.125 0 1 0 0 -0.25z" fill="#152C70"/></svg>