<svg fill="#000000" width="200px" height="200px" viewBox="0 0 12.5 12.5" version="1.2" baseProfile="tiny" xmlns="http://www.w3.org/2000/svg" overflow="inherit"><path cx="22.875" cy="4.625" r="4.125" d="M6.75 1.156A1.031 1.031 0 0 1 5.719 2.188A1.031 1.031 0 0 1 4.688 1.156A1.031 1.031 0 0 1 6.75 1.156z"/><path d="m8.228 8 -1.477 -4.059 -0.009 -0.042c0 -0.059 0.05 -0.107 0.112 -0.107 0.053 0 0.097 0.035 0.109 0.082L7.967 6.5c0.067 0.15 0.341 0.25 0.522 0.25 0.241 0 0.266 -0.474 0.261 -0.5l-1.004 -2.589C7.659 3.08 7.072 2.5 6.404 2.5H5.095c-0.669 0 -1.298 0.581 -1.385 1.161L2.75 6.25c-0.022 0.05 0 0.5 0.261 0.5 0.203 0 0.472 -0.071 0.522 -0.25l0.969 -2.637a0.113 0.113 0 0 1 0.105 -0.071c0.062 0 0.112 0.048 0.112 0.107l-0.007 0.038L3.272 8c-0.003 0.012 0 0.238 0 0.25 0 0.086 0.209 0.25 0.299 0.25H4.5v3.274c0 0.26 0.229 0.476 0.5 0.476s0.5 -0.216 0.5 -0.476V8.498c0 -0.071 0.5 -0.069 0.5 0.002v3.25c0 0.26 0.229 0.5 0.5 0.5 0.272 0 0.5 -0.24 0.5 -0.5V8.5h0.967c0.09 0 0.261 -0.164 0.261 -0.25 0 -0.02 0.007 -0.233 0 -0.25"/></svg>