<svg version="1.1" id="Uploaded to svgrepo.com" xmlns="http://www.w3.org/2000/svg" xmlns:xlink="http://www.w3.org/1999/xlink" width="100px" height="100px" viewBox="0 0 4 4" xml:space="preserve"><style type="text/css">.avocado_een{fill:#231F20;}
	.avocado_zes{fill:#FFFAEE;}
	.avocado_twintig{fill:#EAD13F;}
	.avocado_twee{fill:#3D3935;}
	.st0{fill:#788287;}
	.st1{fill:#CC4121;}
	.st2{fill:#E0A838;}
	.st3{fill:#D1712A;}
	.st4{fill:#A3AEB5;}
	.st5{fill:#C3CC6A;}
	.st6{fill:#6F9B45;}
	.st7{fill:#248EBC;}
	.st8{fill:#8D3E93;}
	.st9{fill:#D36781;}
	.st10{fill:#E598A3;}
	.st11{fill:#716558;}
	.st12{fill:#AF9480;}
	.st13{fill:#DBD2C1;}</style><g><g><path class="avocado_twintig" d="M0.563 2.688v-0.037a0.91 0.91 0 0 0 0.25 -0.629V1.25c0 -0.586 0.477 -1.063 1.063 -1.063h0.25c0.586 0 1.063 0.477 1.063 1.063v0.771c0 0.236 0.089 0.458 0.25 0.629v0.037z"/></g><path class="avocado_zes" d="M2.938 1.375c0 -0.065 -0.005 -0.127 -0.013 -0.188H1.076c-0.008 0.06 -0.013 0.123 -0.013 0.188 0 0.499 0.246 0.877 0.625 1.01v0.302l-0.359 0.254a1.292 1.292 0 0 0 1.343 0L2.313 2.688v-0.302c0.379 -0.133 0.625 -0.511 0.625 -1.01"/><g><path class="avocado_twee" d="M3.359 3.38a0.438 0.438 0 0 0 -0.292 -0.337l-0.364 -0.121a1.298 1.298 0 0 1 -1.406 0l-0.001 0 -0.364 0.121a0.438 0.438 0 0 0 -0.292 0.337L0.563 3.813h2.887z"/></g><path class="avocado_een" d="M1.308 2.852 0.913 2.984a0.5 0.5 0 0 0 -0.334 0.385L0.487 3.875h3.039l-0.107 -0.507a0.5 0.5 0 0 0 -0.334 -0.384l-0.392 -0.13 -0.022 0.014L2.507 2.75H3.5v-0.125a0.854 0.854 0 0 1 -0.25 -0.604V1.25a1.125 1.125 0 0 0 -1.125 -1.125h-0.25a1.125 1.125 0 0 0 -1.125 1.125v0.771A0.854 0.854 0 0 1 0.5 2.625v0.125h0.992l-0.164 0.117zM1.75 2.469a1.038 1.038 0 0 0 0.5 0v0.25l0.3 0.215a1.235 1.235 0 0 1 -1.101 0L1.75 2.72zM1.125 1.375v-0.125h1.75v0.125c0 0.589 -0.36 1 -0.875 1s-0.875 -0.411 -0.875 -1m1.586 1.616 0.336 0.112a0.375 0.375 0 0 1 0.251 0.289l0.075 0.359H0.637l0.065 -0.359a0.375 0.375 0 0 1 0.25 -0.289l0.336 -0.112a1.363 1.363 0 0 0 1.423 0.001M0.875 2.022V1.25c0 -0.551 0.449 -1 1 -1h0.25c0.551 0 1 0.449 1 1v0.771A0.971 0.971 0 0 0 3.333 2.625H2.375v-0.196c0.395 -0.159 0.625 -0.57 0.625 -1.054V1.125H1v0.25c0 0.484 0.23 0.895 0.625 1.054V2.625H0.667A0.971 0.971 0 0 0 0.875 2.022M1.5 1.5h0.25v0.25h-0.25zm1 0.25h-0.25v-0.25h0.25z"/></g></svg>