<svg width="120px" height="120px" viewBox="0 0 9.27 9.27" xmlns="http://www.w3.org/2000/svg"><title/><g data-name="Layer 2" id="Layer_2"><g data-name="—ÎÓÈ 1" id="_ÎÓÈ_1"><path d="M4.669 1.265c3.192 0 1.948 5.29 0 5.29 -1.84 0 -3.192 -5.29 0 -5.29" fill="#ffe8be" fill-rule="evenodd"/><path cx="30.8999" cy="30.8999" fill="#a9cf54" r="30.8999" d="M9.27 4.635A4.635 4.635 0 0 1 4.635 9.27A4.635 4.635 0 0 1 0 4.635A4.635 4.635 0 0 1 9.27 4.635z"/><path d="M2.497 3.766s0.209 2.793 -0.297 3.547 2.477 -0.028 2.477 -0.028l0.001 -5.229z" fill="#302e33" fill-rule="evenodd"/><path d="M6.856 3.766s-0.209 2.793 0.297 3.547 -2.477 -0.028 -2.477 -0.028l-0.001 -5.229z" fill="#302e33" fill-rule="evenodd"/><path d="M7.92 7.905c-0.091 -0.219 -0.074 -0.438 -0.805 -0.778 -0.344 -0.081 -1.232 -0.198 -1.399 -0.51 -0.085 -0.158 -0.065 -0.38 -0.065 -0.794l-1.939 -0.021c0 0.417 0.016 0.639 -0.079 0.795 -0.178 0.294 -1.34 0.508 -1.701 0.604 -0.614 0.273 -0.544 0.439 -0.625 0.661a4.634 4.634 0 0 0 6.612 0.044" fill="#f9dca4" fill-rule="evenodd"/><path d="m5.652 5.817 -0.002 0.375a0.862 0.862 0 0 0 0.083 0.452c-0.668 0.513 -1.919 0.389 -2.057 -0.891z" fill-rule="evenodd" opacity="0.11"/><path d="M2.866 3.627c-0.444 0.194 -0.066 1.111 0.213 1.107a4.62 4.62 0 0 1 -0.213 -1.107" fill="#f9dca4" fill-rule="evenodd"/><path d="M6.526 3.627c0.444 0.194 0.066 1.112 -0.213 1.108a4.62 4.62 0 0 0 0.213 -1.108" fill="#f9dca4" fill-rule="evenodd"/><path d="M4.667 1.3c1.308 0 1.857 0.93 1.89 2.005 0.046 1.472 -0.851 3.214 -1.89 3.214 -0.984 0 -1.906 -1.803 -1.85 -3.289 0.039 -1.043 0.572 -1.93 1.85 -1.93" fill="#ffe8be" fill-rule="evenodd"/><path d="M4.677 2.055c-0.087 0.362 -0.495 1.525 -2.18 1.711C2.322 0.867 4.527 0.938 4.677 0.947c0.15 -0.008 2.356 -0.08 2.18 2.819 -1.685 -0.186 -2.094 -1.349 -2.18 -1.711" fill="#464449" fill-rule="evenodd"/><path d="M7.92 7.905c-2.23 0.687 -5.125 0.272 -5.987 -0.705 -0.614 0.273 -0.544 0.439 -0.625 0.661a4.634 4.634 0 0 0 6.612 0.044" fill="#e9573e" fill-rule="evenodd"/><path d="m6.42 6.978 0.161 0.038 -0.001 1.218h-0.16z" fill="#e9573e" fill-rule="evenodd"/><path d="M3.575 6.663c0 0.002 0.132 0.668 1.132 0.668 0.996 0 1.057 -0.646 1.057 -0.648l0.028 0.027c0 0.002 -0.085 0.705 -1.085 0.705 -1.02 0 -1.163 -0.725 -1.164 -0.727z" fill="#464449" fill-rule="evenodd"/><path cx="31.3239" cy="49.44545" fill="#464449" rx="1.5127" ry="1.9093" d="M4.925 7.417A0.227 0.286 0 0 1 4.699 7.703A0.227 0.286 0 0 1 4.472 7.417A0.227 0.286 0 0 1 4.925 7.417z"/></g></g></svg>