<svg width="24px" height="24px" viewBox="0 0 30.72 30.72" fill="#000000" class="icon" version="1.1" xmlns="http://www.w3.org/2000/svg"><path d="M15.36 30.384C7.752 30.384 0.024 28.752 0.024 25.632c0 -2.784 5.952 -3.936 8.496 -4.296h0.096c0.36 0 0.672 0.264 0.72 0.624 0.024 0.192 -0.024 0.384 -0.144 0.528s-0.288 0.264 -0.48 0.288c-5.304 0.768 -7.272 2.16 -7.272 2.88 0 1.344 5.424 3.312 13.896 3.312S29.232 27 29.232 25.656c0 -0.72 -1.992 -2.112 -7.344 -2.88 -0.192 -0.024 -0.36 -0.12 -0.48 -0.288 -0.12 -0.144 -0.168 -0.336 -0.144 -0.528 0.048 -0.36 0.36 -0.624 0.72 -0.624h0.096c2.568 0.36 8.568 1.512 8.568 4.296 0.024 3.096 -7.68 4.752 -15.288 4.752m-0.504 -5.088c-0.36 -0.336 -8.664 -8.184 -8.664 -15.888 0 -5.04 4.104 -9.144 9.144 -9.144S24.48 4.368 24.48 9.408c0 7.488 -8.304 15.528 -8.664 15.864l-0.48 0.48zM15.36 1.704c-4.248 0 -7.704 3.456 -7.704 7.704 0 6.024 5.88 12.48 7.704 14.328 1.848 -1.896 7.728 -8.472 7.728 -14.328 -0.024 -4.224 -3.48 -7.704 -7.728 -7.704m0 11.784c-2.4 0 -4.344 -1.944 -4.344 -4.344S12.96 4.8 15.36 4.8s4.344 1.944 4.344 4.344S17.76 13.488 15.36 13.488m0 -7.248c-1.608 0 -2.904 1.296 -2.904 2.904s1.296 2.904 2.904 2.904 2.904 -1.296 2.904 -2.904 -1.32 -2.904 -2.904 -2.904" fill=""/></svg>