<svg version="1.1" id="Uploaded to svgrepo.com" xmlns="http://www.w3.org/2000/svg" xmlns:xlink="http://www.w3.org/1999/xlink" width="100px" height="100px" viewBox="0 0 4 4" xml:space="preserve"><style type="text/css">.avocado_een{fill:#231F20;}
	.avocado_drie{fill:#716558;}
	.avocado_vijf{fill:#DBD2C1;}
	.avocado_zeven{fill:#788287;}
	.st0{fill:#EAD13F;}
	.st1{fill:#E0A838;}
	.st2{fill:#FFFAEE;}
	.st3{fill:#3D3935;}
	.st4{fill:#6F9B45;}
	.st5{fill:#CC4121;}
	.st6{fill:#E598A3;}
	.st7{fill:#D36781;}
	.st8{fill:#8D3E93;}
	.st9{fill:#BF63C1;}
	.st10{fill:#A3AEB5;}
	.st11{fill:#AF9480;}
	.st12{fill:#0E608E;}
	.st13{fill:#248EBC;}
	.st14{fill:#D1712A;}
	.st15{fill:#C3CC6A;}
	.st16{fill:#0B1719;}</style><g><g><path class="avocado_vijf" d="M2.938 1.375c0 -0.626 -0.386 -1.063 -0.938 -1.063S1.063 0.749 1.063 1.375c0 0.499 0.246 0.877 0.625 1.01v0.339l0.313 0.313 0.313 -0.313V2.385c0.379 -0.133 0.625 -0.511 0.625 -1.01"/></g><path class="avocado_zeven" d="M3.359 3.38a0.438 0.438 0 0 0 -0.292 -0.337l-0.364 -0.121L2.75 2.875l-0.438 -0.151 -0.313 0.313 -0.313 -0.313L1.25 2.875l0.047 0.047 -0.364 0.121a0.438 0.438 0 0 0 -0.292 0.337L0.563 3.813h2.887z"/><path class="avocado_drie" d="M2.5 1.188a0.938 0.938 0 0 1 -0.469 -0.127L2 1.043l-0.031 0.018A0.938 0.938 0 0 1 1.5 1.188c-0.187 0 -0.366 -0.055 -0.521 -0.16 0.081 -0.338 0.275 -0.598 0.549 -0.735A1.087 1.087 0 0 1 2 0.188c0.509 0 0.898 0.321 1.022 0.841A0.929 0.929 0 0 1 2.5 1.188"/><path class="avocado_een" d="M3.422 3.378a0.5 0.5 0 0 0 -0.348 -0.39l-0.268 -0.08 0.06 -0.06L2.375 2.682V2.429c0.395 -0.159 0.625 -0.57 0.625 -1.054 0 -0.086 -0.009 -0.168 -0.024 -0.248 0.04 -0.022 0.079 -0.045 0.115 -0.072C2.98 0.52 2.587 0.125 2 0.125c-0.187 0 -0.354 0.041 -0.499 0.113C1.192 0.392 0.984 0.691 0.908 1.055c0.036 0.027 0.075 0.05 0.115 0.072C1.009 1.207 1 1.289 1 1.375c0 0.484 0.23 0.895 0.625 1.054v0.254l-0.49 0.166 0.06 0.06 -0.268 0.08a0.5 0.5 0 0 0 -0.348 0.39L0.488 3.875h3.037zm-0.787 -0.476 -0.375 0.375 -0.165 -0.247 0.232 -0.232zm-0.635 0.046 -0.25 -0.25v-0.229a1.038 1.038 0 0 0 0.5 0v0.229zM2 0.25c0.465 0 0.822 0.285 0.95 0.75A0.863 0.863 0 0 1 2.5 1.125c-0.46 0 -0.839 -0.357 -0.873 -0.806A1 1 0 0 1 2 0.25m-0.491 0.13a0.998 0.998 0 0 0 0.373 0.655 0.864 0.864 0 0 1 -0.832 -0.036c0.077 -0.281 0.24 -0.494 0.459 -0.619M1.125 1.375c0 -0.068 0.006 -0.132 0.016 -0.195A0.988 0.988 0 0 0 1.5 1.25c0.182 0 0.351 -0.051 0.498 -0.136A0.994 0.994 0 0 0 2.5 1.25a0.988 0.988 0 0 0 0.359 -0.07c0.009 0.063 0.016 0.127 0.016 0.195 0 0.589 -0.36 1 -0.875 1s-0.875 -0.411 -0.875 -1m0.548 1.423 0.232 0.232 -0.165 0.247 -0.375 -0.375zM0.637 3.75l0.064 -0.35a0.375 0.375 0 0 1 0.261 -0.292l0.333 -0.1 0.465 0.465 0.235 -0.353L2 3.125l0.005 -0.005 0.235 0.353 0.465 -0.465 0.333 0.1a0.375 0.375 0 0 1 0.261 0.292L3.375 3.75zM1.75 1.75h-0.25v-0.25h0.25zm0.75 0h-0.25v-0.25h0.25z"/></g></svg>