<svg fill="#000000" width="50px" height="50px" viewBox="-0.063 0 1.5 1.5" xmlns="http://www.w3.org/2000/svg"><path d="M0.884 1.039a1.5 1.5 0 0 1 -0.003 -0.158l0 0.002a0.303 0.303 0 0 0 0.083 -0.179l0 -0.001c0.021 -0.002 0.055 -0.022 0.064 -0.104a0.076 0.076 0 0 0 -0.028 -0.076l0 0c0.035 -0.104 0.106 -0.425 -0.133 -0.458C0.843 0.022 0.78 0 0.698 0c-0.327 0.006 -0.366 0.247 -0.295 0.523a0.076 0.076 0 0 0 -0.028 0.077l0 -0.001c0.01 0.082 0.043 0.102 0.064 0.104a0.304 0.304 0 0 0 0.086 0.18 1.54 1.54 0 0 1 -0.004 0.161l0 -0.005C0.457 1.213 0.02 1.164 0 1.5h1.404c-0.02 -0.336 -0.455 -0.287 -0.52 -0.461z"/></svg>