<svg fill="#000000" width="200px" height="200px" viewBox="0 0 12.5 12.5" version="1.2" baseProfile="tiny" xmlns="http://www.w3.org/2000/svg" overflow="inherit"><path d="M4.5 11.75c0 0.308 0.192 0.5 0.5 0.5 0.309 0 0.5 -0.192 0.5 -0.5V7h0.5v4.75c0 0.308 0.192 0.5 0.5 0.5s0.5 -0.192 0.5 -0.5V3.75h0.25v2.954c0 0.599 0.751 0.599 0.75 0V3.665C8 3.004 7.524 2.5 6.75 2.5h-2c-0.705 0 -1.25 0.43 -1.25 1.147V6.75c0 0.5 0.75 0.5 0.75 0V3.75h0.25z"/><path cx="22.875" cy="4.625" r="4.125" d="M6.75 1.156A1.031 1.031 0 0 1 5.719 2.188A1.031 1.031 0 0 1 4.688 1.156A1.031 1.031 0 0 1 6.75 1.156z"/></svg>