<svg width="120px" height="120px" viewBox="0 0 9.27 9.27" xmlns="http://www.w3.org/2000/svg"><title/><g data-name="Layer 2" id="Layer_2"><g data-name="—ÎÓÈ 1" id="_ÎÓÈ_1"><path cx="30.8999" cy="30.8999" fill="#58b0e0" r="30.8999" d="M9.27 4.635A4.635 4.635 0 0 1 4.635 9.27A4.635 4.635 0 0 1 0 4.635A4.635 4.635 0 0 1 9.27 4.635z"/><path d="m3.488 5.802 2.386 0.018v1.938l-2.386 -0.018z" fill="#f9dca4" fill-rule="evenodd"/><path d="M6.596 8.836a4.645 4.645 0 0 1 -3.876 0.021V7.263H6.595z" fill="#e6e6e6" fill-rule="evenodd"/><path d="M5.01 9.255q-0.186 0.015 -0.375 0.015 -0.143 0 -0.284 -0.009l0.154 -1.348h0.361z" fill="#e9573e" fill-rule="evenodd"/><path d="M3.849 9.2A5.1 5.1 0 0 1 2.385 8.688a4.65 4.65 0 0 1 -1.179 -0.934l0.193 -0.465 2.089 -0.932c0 0.782 0.257 2.022 0.361 2.842z" fill="#677079" fill-rule="evenodd"/><path d="M5.875 5.814v0.485c-0.71 0.829 -2.066 0.712 -2.37 -0.512z" fill-rule="evenodd" opacity="0.11"/><path d="M4.669 1.265c3.192 0 1.948 5.29 0 5.29 -1.84 0 -3.192 -5.29 0 -5.29" fill="#ffe8be" fill-rule="evenodd"/><path d="M2.755 3.607c-0.46 0.201 -0.069 1.153 0.221 1.149a4.8 4.8 0 0 1 -0.221 -1.149z" fill="#f9dca4" fill-rule="evenodd"/><path d="M6.621 3.607c0.46 0.201 0.069 1.153 -0.221 1.149a4.8 4.8 0 0 0 0.221 -1.149" fill="#f9dca4" fill-rule="evenodd"/><path d="M3.29 2.149c-0.5 0.519 -0.324 1.954 -0.324 1.954l-0.158 -0.074c-0.983 -3.809 4.745 -3.809 3.756 0l-0.158 0.074s0.176 -1.436 -0.324 -1.954c-0.618 0.599 -2.179 0.596 -2.793 0" fill="#464449" fill-rule="evenodd"/><path d="M5.515 9.186a4.629 4.629 0 0 0 2.611 -1.503l-0.164 -0.395 -2.089 -0.932c0 0.782 -0.255 2.009 -0.359 2.829" fill="#677079" fill-rule="evenodd"/><path d="m5.874 6.297 -1.189 0.97 0.986 0.887s0.263 -1.456 0.203 -1.857" fill="#ffffff" fill-rule="evenodd"/><path d="m3.488 6.297 1.198 0.97 -0.997 0.887s-0.262 -1.456 -0.202 -1.857" fill="#ffffff" fill-rule="evenodd"/><path d="m4.216 7.684 0.471 -0.423 0.471 0.423 -0.471 0.423z" fill="#e9573e" fill-rule="evenodd"/><path d="M3.865 9.206a4.65 4.65 0 0 1 -0.567 -0.132 0.45 0.45 0 0 1 -0.017 -0.014l-0.53 -0.958 0.681 -0.489h-0.713l0.153 -1.028 0.617 -0.39c0.027 1.105 0.264 2.348 0.377 3.011" fill="#434955" fill-rule="evenodd"/><path d="M5.497 9.19c0.088 -0.015 0.175 -0.035 0.262 -0.058a8.55 8.55 0 0 0 0.305 -0.087l0.02 -0.006 0.527 -0.947 -0.681 -0.486h0.713l-0.153 -1.023 -0.617 -0.388c-0.027 1.1 -0.264 2.336 -0.376 2.995" fill="#434955" fill-rule="evenodd"/></g></g></svg>