<svg width="500px" height="500px" viewBox="0 0 12.5 12.5" xmlns="http://www.w3.org/2000/svg"><g id="add-user-square" transform="translate(-2 -2)"><path id="secondary" fill="#2ca9bc" d="M7.5 9.375A3.125 3.125 0 0 1 10.625 12.5v0.625h-6.25V12.5A3.125 3.125 0 0 1 7.5 9.375"/><path id="primary" d="M8.125 4.457a2.333 2.333 0 0 0 -0.625 -0.082 2.5 2.5 0 1 0 2.162 3.75" fill="none" stroke="#000000" stroke-linecap="round" stroke-linejoin="round" stroke-width="1.25"/><path id="primary-2" data-name="primary" d="M7.5 9.375A3.125 3.125 0 0 0 4.375 12.5v0.625h6.25V12.5A3.125 3.125 0 0 0 7.5 9.375m3.125 -3.75h2.5m-1.25 -1.25v2.5" fill="none" stroke="#000000" stroke-linecap="round" stroke-linejoin="round" stroke-width="1.25"/><path id="primary-3" data-name="primary" d="M13.125 9.375V12.5a0.625 0.625 0 0 1 -0.625 0.625h-10a0.625 0.625 0 0 1 -0.625 -0.625v-10a0.625 0.625 0 0 1 0.625 -0.625h9.375" fill="none" stroke="#000000" stroke-linecap="round" stroke-linejoin="round" stroke-width="1.25"/></g></svg>